<svg viewBox="0 0 51 51" fill="none" xmlns="http://www.w3.org/2000/svg">
<path d="M25.2628 24.7179C26.1903 24.7179 26.9817 24.3877 27.6373 23.7272C28.2932 23.0668 28.6212 22.2729 28.6212 21.3455C28.6212 20.418 28.2908 19.6264 27.63 18.9705C26.9696 18.3149 26.1757 17.9871 25.2482 17.9871C24.3208 17.9871 23.5293 18.3174 22.8738 18.9778C22.2179 19.6382 21.8899 20.4321 21.8899 21.3595C21.8899 22.287 22.2203 23.0786 22.8811 23.7345C23.5415 24.3901 24.3354 24.7179 25.2628 24.7179ZM25.2555 41.2726C29.1712 37.8642 32.2668 34.3979 34.5425 30.8736C36.8182 27.3493 37.9561 24.3012 37.9561 21.7293C37.9561 17.9179 36.7495 14.772 34.3363 12.2918C31.9231 9.81197 28.8962 8.57204 25.2555 8.57204C21.6149 8.57204 18.588 9.81197 16.1748 12.2918C13.7616 14.772 12.555 17.9179 12.555 21.7293C12.555 24.3012 13.6929 27.3493 15.9686 30.8736C18.2442 34.3979 21.3399 37.8642 25.2555 41.2726ZM25.2555 44.0689C20.3597 39.7394 16.6719 35.7016 14.192 31.9554C11.7118 28.2095 10.4717 24.8009 10.4717 21.7293C10.4717 17.322 11.9067 13.6868 14.7769 10.8236C17.6467 7.96041 21.1396 6.52881 25.2555 6.52881C29.3715 6.52881 32.8644 7.96041 35.7342 10.8236C38.6043 13.6868 40.0394 17.322 40.0394 21.7293C40.0394 24.8009 38.7993 28.2095 36.3191 31.9554C33.8392 35.7016 30.1514 39.7394 25.2555 44.0689Z" fill="#1C1B1F"/>
</svg>
