<svg viewBox="0 0 50 50" fill="none" xmlns="http://www.w3.org/2000/svg">
<path d="M9.61562 10.4165L12.7406 16.6665H18.9906L15.8656 10.4165H20.0323L23.1573 16.6665H29.4073L26.2823 10.4165H30.449L33.574 16.6665H39.824L36.699 10.4165H40.3844C41.3434 10.4165 42.1441 10.7377 42.7865 11.38C43.4288 12.0224 43.75 12.8231 43.75 13.7821V36.2175C43.75 37.1766 43.4288 37.9773 42.7865 38.6196C42.1441 39.262 41.3434 39.5832 40.3844 39.5832H9.61562C8.6566 39.5832 7.8559 39.262 7.21354 38.6196C6.57118 37.9773 6.25 37.1766 6.25 36.2175V13.7821C6.25 12.8231 6.57118 12.0224 7.21354 11.38C7.8559 10.7377 8.6566 10.4165 9.61562 10.4165Z" fill="#1C1B1F"/>
</svg>
