<svg viewBox="0 0 50 50" fill="none" xmlns="http://www.w3.org/2000/svg">
<path d="M40.5925 41.9864L27.5477 28.9416C26.5061 29.8284 25.3081 30.5149 23.954 31.001C22.5998 31.4871 21.239 31.7302 19.8717 31.7302C16.5349 31.7302 13.7107 30.5751 11.3993 28.2651C9.08817 25.955 7.93262 23.1326 7.93262 19.7979C7.93262 16.4628 9.08765 13.638 11.3977 11.3234C13.7078 9.00917 16.5302 7.85205 19.8649 7.85205C23.2 7.85205 26.0248 9.00761 28.3394 11.3187C30.6536 13.6302 31.8107 16.4543 31.8107 19.7911C31.8107 21.2387 31.5543 22.6395 31.0415 23.9937C30.5286 25.3479 29.8555 26.5057 29.0222 27.4672L42.067 40.5125L40.5925 41.9864ZM19.8717 29.6468C22.6359 29.6468 24.9696 28.6953 26.8727 26.7922C28.7758 24.8894 29.7274 22.5557 29.7274 19.7911C29.7274 17.0265 28.7758 14.6928 26.8727 12.7901C24.9696 10.8869 22.6359 9.93538 19.8717 9.93538C17.1071 9.93538 14.7734 10.8869 12.8706 12.7901C10.9675 14.6928 10.016 17.0265 10.016 19.7911C10.016 22.5557 10.9675 24.8894 12.8706 26.7922C14.7734 28.6953 17.1071 29.6468 19.8717 29.6468Z" fill="#1C1B1F"/>
</svg>
